# xmcd
#
# Track frame offsets:
#	150
#	19647
#	33808
#	48805
#	62046
#	75566
#	90892
#	105944
#	116981
#	129378
#	143195
#
# Disc length: 2079 seconds
#
# Revision: 2
# Processed by: cddbd v1.5.1PL0 Copyright (c) Steve Scherf et al.
# Submitted via: audiograbber 1.83.01
#
DISCID=7b081d0b
DTITLE=Conjunto Típico populares Bairristas - Conjunto Típico populares Bairris
DTITLE=tas
DYEAR=1900
DGENRE=Portugues
TTITLE0=Desgarrada
TTITLE1=Vamos para o sao Joao
TTITLE2=Homenagen a castelo de Paiva
TTITLE3=Nao te queria para mulher
TTITLE4=Os teus olhos sao azuis
TTITLE5=Mariana,Mariana
TTITLE6=Ha festa na minha aldeia
TTITLE7=Felisbela nao queiras Maxi-Saia
TTITLE8=Elas parecem umas rainhas
TTITLE9=Corta a pera Chico
TTITLE10=Beijo da MAe
EXTD=
EXTT0=
EXTT1=
EXTT2=
EXTT3=
EXTT4=
EXTT5=
EXTT6=
EXTT7=
EXTT8=
EXTT9=
EXTT10=
PLAYORDER=
